<?xml version="1.0" standalone="no"?>
<!DOCTYPE svg PUBLIC "-//W3C//DTD SVG 20010904//EN"
 "http://www.w3.org/TR/2001/REC-SVG-20010904/DTD/svg10.dtd">
<svg version="1.0" xmlns="http://www.w3.org/2000/svg"
 width="1271.000000pt" height="1271.000000pt" viewBox="0 0 1271.000000 1271.000000"
 preserveAspectRatio="xMidYMid meet">
<metadata>
Created by potrace 1.14, written by Peter Selinger 2001-2017
</metadata>
<g transform="translate(0.000000,1271.000000) scale(0.100000,-0.100000)"
fill="#000000" stroke="none">
<path d="M0 6355 l0 -6355 6355 0 6355 0 0 6355 0 6355 -6355 0 -6355 0 0
-6355z m11231 4996 l29 -29 0 -4972 c0 -4283 -2 -4975 -14 -4999 -8 -15 -26
-32 -41 -39 -20 -9 -1164 -12 -4996 -12 l-4971 0 -29 29 -29 29 0 4982 0 4982
29 29 29 29 4982 0 4982 0 29 -29z"/>
<path d="M5715 9289 c-633 -37 -1202 -196 -1524 -426 -345 -247 -520 -592
-521 -1023 -1 -688 521 -1121 1710 -1420 177 -44 343 -80 826 -180 578 -119
847 -193 1014 -281 153 -80 211 -141 232 -243 13 -62 -5 -133 -53 -202 -97
-141 -433 -251 -869 -284 -204 -15 -690 -12 -902 5 -655 55 -1251 213 -1768
469 -79 39 -148 73 -152 74 -5 2 -7 -256 -6 -574 l3 -577 145 -49 c824 -278
1704 -393 2670 -348 555 26 970 103 1345 249 377 147 646 387 799 712 75 159
115 354 116 555 0 323 -101 571 -329 807 -234 242 -574 426 -1091 591 -281 89
-412 121 -1370 331 -546 120 -793 205 -915 317 -65 59 -90 115 -83 188 15 151
200 244 593 296 152 20 600 37 775 29 639 -28 1273 -170 1880 -424 l140 -58 0
558 0 558 -82 24 c-596 179 -1134 280 -1708 322 -208 16 -642 17 -875 4z"/>
</g>
</svg>
