<?xml version="1.0" standalone="no"?>
<!DOCTYPE svg PUBLIC "-//W3C//DTD SVG 20010904//EN"
 "http://www.w3.org/TR/2001/REC-SVG-20010904/DTD/svg10.dtd">
<svg version="1.0" xmlns="http://www.w3.org/2000/svg"
 width="1258.000000pt" height="1258.000000pt" viewBox="0 0 1258.000000 1258.000000"
 preserveAspectRatio="xMidYMid meet">
<metadata>
Created by potrace 1.14, written by Peter Selinger 2001-2017
</metadata>
<g transform="translate(0.000000,1258.000000) scale(0.100000,-0.100000)"
fill="#000000" stroke="none">
<path d="M0 6290 l0 -6290 6290 0 6290 0 0 6290 0 6290 -6290 0 -6290 0 0
-6290z m11221 5011 l29 -29 0 -4972 c0 -4283 -2 -4975 -14 -4999 -8 -15 -26
-32 -41 -39 -20 -9 -1164 -12 -4996 -12 l-4971 0 -29 29 -29 29 0 4982 0 4982
29 29 29 29 4982 0 4982 0 29 -29z"/>
<path d="M5880 8484 c-366 -31 -604 -77 -801 -153 -388 -150 -580 -372 -614
-711 -8 -78 9 -213 36 -285 49 -130 181 -281 334 -381 223 -145 582 -272 1172
-414 732 -175 1049 -281 1250 -418 79 -54 166 -142 203 -207 41 -72 64 -181
55 -265 -38 -370 -398 -570 -1115 -620 -461 -32 -992 27 -1352 149 -112 38
-262 104 -361 158 -69 38 -84 43 -142 43 l-65 0 0 -195 c0 -175 2 -195 18
-203 56 -29 444 -132 642 -171 322 -63 497 -76 990 -76 468 1 540 6 830 61
156 30 392 104 500 159 249 125 411 301 480 520 31 97 39 301 16 399 -28 118
-88 218 -196 327 -52 53 -122 114 -156 137 -252 169 -606 295 -1354 482 -347
87 -550 143 -702 196 -482 167 -666 351 -628 626 37 263 285 439 722 513 596
100 1298 18 1793 -210 101 -47 128 -55 177 -55 l58 0 0 189 c0 187 0 189 -22
195 -313 87 -619 148 -963 192 -114 14 -696 27 -805 18z"/>
</g>
</svg>
