<?xml version="1.0" standalone="no"?>
<!DOCTYPE svg PUBLIC "-//W3C//DTD SVG 20010904//EN"
 "http://www.w3.org/TR/2001/REC-SVG-20010904/DTD/svg10.dtd">
<svg version="1.0" xmlns="http://www.w3.org/2000/svg"
 width="1234.000000pt" height="1234.000000pt" viewBox="0 0 1234.000000 1234.000000"
 preserveAspectRatio="xMidYMid meet">
<metadata>
Created by potrace 1.14, written by Peter Selinger 2001-2017
</metadata>
<g transform="translate(0.000000,1234.000000) scale(0.100000,-0.100000)"
fill="#000000" stroke="none">
<path d="M0 6170 l0 -6170 6170 0 6170 0 0 6170 0 6170 -6170 0 -6170 0 0
-6170z m11051 5051 l29 -29 0 -4972 c0 -4283 -2 -4975 -14 -4999 -8 -15 -26
-32 -41 -39 -20 -9 -1164 -12 -4996 -12 l-4971 0 -29 29 -29 29 0 4982 0 4982
29 29 29 29 4982 0 4982 0 29 -29z"/>
<path d="M5615 9459 c-762 -36 -1341 -196 -1708 -473 -271 -204 -418 -463
-447 -790 -59 -644 402 -1082 1478 -1407 225 -68 475 -133 857 -224 1216 -288
1677 -462 1960 -742 149 -146 212 -276 222 -463 13 -228 -69 -428 -240 -585
-264 -243 -724 -386 -1402 -435 -181 -13 -621 -13 -800 0 -329 24 -755 90
-983 151 -262 70 -539 181 -773 310 l-127 69 -86 0 -86 0 0 -298 0 -299 163
-51 c745 -234 1409 -331 2262 -332 921 0 1596 123 2070 378 334 180 573 467
651 784 26 103 28 129 28 298 0 216 -14 286 -89 435 -159 321 -486 571 -1020
780 -345 136 -627 219 -1415 420 -557 142 -815 214 -1050 293 -537 181 -832
390 -924 651 -28 79 -33 237 -12 334 40 179 154 335 331 454 214 143 529 236
990 290 220 26 889 26 1094 0 530 -67 888 -164 1308 -353 l165 -74 89 0 89 0
0 280 0 280 -27 6 c-16 4 -132 33 -259 65 -848 213 -1522 285 -2309 248z"/>
</g>
</svg>
